<svg width="268.32" height="58.087" viewBox="0 0 268.32 58.087" xmlns="http://www.w3.org/2000/svg"><g id="svgGroup" stroke-linecap="round" fill-rule="evenodd" font-size="9pt" stroke="#ffffff" stroke-width="0.25mm" fill="#ffffff" style="stroke:#ffffff;stroke-width:0.25mm;fill:#ffffff"><path d="M 27.44 24.403 L 20.16 21.603 C 18.381 20.942 16.988 20.194 16.056 19.262 A 4.314 4.314 0 0 1 14.72 16.083 C 14.72 13.123 17.2 11.123 20.96 11.123 A 8.95 8.95 0 0 1 28.369 15.359 A 15.184 15.184 0 0 1 29.76 17.843 L 39.76 12.083 C 36.32 4.483 29.04 0.003 20.72 0.003 A 21.005 21.005 0 0 0 11.261 2.109 C 6.139 4.683 2.782 9.475 2.431 15.707 A 19.449 19.449 0 0 0 2.4 16.803 A 15.075 15.075 0 0 0 4.039 23.897 C 6.168 27.973 10.272 30.832 15.76 32.803 L 22.48 35.203 C 26.4 36.563 28.32 38.563 28.32 41.203 A 5.141 5.141 0 0 1 25.121 45.981 C 24.042 46.488 22.762 46.767 21.395 46.8 A 11.418 11.418 0 0 1 21.12 46.803 A 11.372 11.372 0 0 1 11.192 40.628 A 15.219 15.219 0 0 1 10.32 38.803 L 0 44.323 A 21.598 21.598 0 0 0 20.073 58.068 A 25.872 25.872 0 0 0 20.96 58.083 A 21.54 21.54 0 0 0 34.867 53.337 C 38.435 50.32 40.72 45.938 40.72 40.403 C 40.72 33.061 36.762 28.182 28.342 24.758 A 42.852 42.852 0 0 0 27.44 24.403 Z M 111.76 39.123 L 111.76 17.523 L 100.08 17.523 L 100.08 41.923 A 21.498 21.498 0 0 0 101.118 48.806 C 102.852 53.939 106.693 57.192 112.132 57.925 A 18.173 18.173 0 0 0 114.56 58.083 A 14.924 14.924 0 0 0 119.679 57.225 A 12.408 12.408 0 0 0 126.08 52.003 L 126.08 57.043 L 137.76 57.043 L 137.76 17.523 L 126.08 17.523 L 126.08 38.403 C 126.08 44.083 123.2 47.363 118.72 47.363 A 7.413 7.413 0 0 1 115.503 46.7 C 113.069 45.539 111.76 42.902 111.76 39.123 Z M 241.52 57.043 L 252.24 57.043 L 268.32 17.523 L 256.32 17.523 L 247.04 42.483 L 237.76 17.523 L 225.44 17.523 L 241.52 57.043 Z M 78.64 17.523 L 78.64 22.643 C 75.84 18.563 71.04 16.563 65.84 16.563 A 18.701 18.701 0 0 0 47.976 30.912 A 23.682 23.682 0 0 0 47.12 37.283 A 22.62 22.62 0 0 0 50.197 48.904 A 18.069 18.069 0 0 0 65.84 58.003 A 16.355 16.355 0 0 0 75.109 55.281 A 13.556 13.556 0 0 0 78.64 51.763 L 78.64 57.043 L 90.08 57.043 L 90.08 17.523 L 78.64 17.523 Z M 208 17.523 L 208 22.643 C 205.2 18.563 200.4 16.563 195.2 16.563 A 18.701 18.701 0 0 0 177.336 30.912 A 23.682 23.682 0 0 0 176.48 37.283 A 22.62 22.62 0 0 0 179.557 48.904 A 18.069 18.069 0 0 0 195.2 58.003 A 16.355 16.355 0 0 0 204.469 55.281 A 13.556 13.556 0 0 0 208 51.763 L 208 57.043 L 219.44 57.043 L 219.44 17.523 L 208 17.523 Z M 159.52 24.003 L 159.52 17.523 L 148 17.523 L 148 57.043 L 159.6 57.043 L 159.6 40.963 C 159.6 33.203 163.44 28.403 169.92 28.403 C 171.28 28.403 172.24 28.563 172.88 28.883 L 172.88 16.883 A 1.412 1.412 0 0 0 172.791 16.858 C 172.466 16.773 171.673 16.643 170.88 16.643 A 12.186 12.186 0 0 0 164.022 18.658 A 13.046 13.046 0 0 0 159.52 24.003 Z M 68.598 27.047 A 10.141 10.141 0 0 0 58.72 37.283 A 10.756 10.756 0 0 0 58.725 37.615 A 10.135 10.135 0 0 0 68.88 47.523 A 10.569 10.569 0 0 0 69.162 47.52 A 10.141 10.141 0 0 0 79.04 37.283 A 10.756 10.756 0 0 0 79.035 36.952 A 10.135 10.135 0 0 0 68.88 27.043 A 10.569 10.569 0 0 0 68.598 27.047 Z M 197.958 27.047 A 10.141 10.141 0 0 0 188.08 37.283 A 10.756 10.756 0 0 0 188.085 37.615 A 10.135 10.135 0 0 0 198.24 47.523 A 10.569 10.569 0 0 0 198.522 47.52 A 10.141 10.141 0 0 0 208.4 37.283 A 10.756 10.756 0 0 0 208.395 36.952 A 10.135 10.135 0 0 0 198.24 27.043 A 10.569 10.569 0 0 0 197.958 27.047 Z" vector-effect="non-scaling-stroke"/></g></svg>